# xmcd CD database file
#
# Track frame offsets:
#	150
#	23700
#	49575
#	75975
#	108975
#	131700
#	160050
#
# Disc length: 2724 seconds
#
# Revision: 2
# Processed by: cddbd v1.5.1PL0 Copyright (c) Steve Scherf et al.
# Submitted via: CDex 1.51
#
DISCID=480aa207
DTITLE=Hiroshi Takashima - Hiroshi Takashima Meets Takahiro Toyoda "DUO"
DYEAR=2002
DGENRE=Jazz
TTITLE0=I Hear A Rhapsody
TTITLE1=Bluesette
TTITLE2=Nobody Knows You When You're Down And Out
TTITLE3=A Night In Tunisia
TTITLE4=Straight No Chaser
TTITLE5=There Is No Greater Love
TTITLE6=Lush Life ~ Little Girl Blue
EXTD=YEAR: 2002
EXTT0=
EXTT1=
EXTT2=
EXTT3=
EXTT4=
EXTT5=
EXTT6=
PLAYORDER=
